# xmcd
# Copyright (C) 1995-1998 Ti Kan
#
# Track frame offsets:
#       182
#       11225
#       24417
#       34927
#       45375
#       55612
#       72092
#       82630
#       92557
#       102025
#       115675
#       126570
#       143632
#       154015
#
# Disc length: 2262 seconds
#
# Revision: 0
# Processed by: cddbd v1.5.2PL0 Copyright (c) Steve Scherf et al.
# Submitted via: CD-Import v1.0
#
DISCID=a308d40e
DTITLE=Bee Gees - Bee Gees' 1st
DYEAR=1967
DGENRE=
TTITLE0=Turn Of The Century
TTITLE1=Holiday
TTITLE2=Red Chair, Fade Away
TTITLE3=One Minute Woman
TTITLE4=In My Own Time
TTITLE5=Every Christian Lion Hearted Man Will Show You
TTITLE6=Craise Finto Kirk Royal Academy Of Arts
TTITLE7=New York Mining Disaster 1981
TTITLE8=Cucumber Castle
TTITLE9=To Love Somebody
TTITLE10=I Close My Eyes
TTITLE11=I Can't See Nobody
TTITLE12=Please Read Me
TTITLE13=Close Another Door
EXTD=
EXTT0=
EXTT1=
EXTT2=
EXTT3=
EXTT4=
EXTT5=
EXTT6=
EXTT7=
EXTT8=
EXTT9=
EXTT10=
EXTT11=
EXTT12=
EXTT13=
PLAYORDER=
